<?xml version="1.0" standalone="no"?>
<!DOCTYPE svg PUBLIC "-//W3C//DTD SVG 20010904//EN"
 "http://www.w3.org/TR/2001/REC-SVG-20010904/DTD/svg10.dtd">
<svg version="1.0" xmlns="http://www.w3.org/2000/svg"
 width="512.000000pt" height="512.000000pt" viewBox="0 0 512.000000 512.000000"
 preserveAspectRatio="xMidYMid meet">

<g transform="translate(0.000000,512.000000) scale(0.100000,-0.100000)"
fill="#000000" stroke="none">
<path d="M2523 5110 c-12 -5 -26 -18 -32 -29 -7 -13 -11 -185 -11 -521 l0
-501 25 -24 c15 -16 36 -25 55 -25 19 0 40 9 55 25 l25 24 0 504 c0 466 -1
506 -17 526 -21 24 -68 35 -100 21z"/>
<path d="M1078 4944 c-54 -29 -53 -34 123 -558 90 -269 172 -499 182 -512 25
-33 79 -33 112 1 14 13 25 32 25 42 0 10 -74 241 -165 513 -119 358 -171 500
-186 513 -26 21 -55 21 -91 1z"/>
<path d="M3951 4943 c-15 -13 -67 -155 -186 -513 -91 -272 -165 -503 -165
-513 0 -10 11 -29 25 -42 31 -32 78 -33 108 -2 33 34 353 992 344 1029 -8 29
-51 58 -85 58 -11 0 -29 -8 -41 -17z"/>
<path d="M2445 3834 c-511 -30 -958 -150 -1414 -378 -269 -136 -461 -266 -658
-448 -180 -166 -373 -398 -373 -448 0 -43 120 -192 294 -366 195 -195 337
-306 541 -424 976 -565 2086 -639 3056 -205 159 71 291 145 464 260 194 129
336 245 501 410 172 172 264 285 264 325 0 41 -93 155 -264 325 -519 517
-1163 836 -1869 924 -150 19 -425 32 -542 25z m1019 -289 c354 -107 684 -281
1006 -529 101 -77 470 -435 470 -454 0 -18 -290 -310 -391 -393 -283 -234
-582 -410 -904 -532 -102 -38 -151 -54 -287 -93 -10 -3 34 46 96 108 164 164
254 307 321 513 123 374 65 781 -158 1115 -27 41 -101 126 -163 188 -61 61
-111 112 -109 112 2 0 56 -16 119 -35z m-1810 -87 c-153 -156 -242 -300 -309
-501 -84 -254 -84 -540 0 -794 66 -197 160 -350 309 -501 117 -118 122 -116
-93 -45 -555 181 -999 474 -1328 876 l-55 67 58 72 c195 237 439 442 729 611
98 56 299 152 415 197 86 33 346 119 365 120 6 0 -35 -46 -91 -102z m1021
-433 c237 -62 393 -291 358 -529 -28 -194 -168 -351 -358 -401 -251 -65 -513
94 -580 350 -89 343 237 669 580 580z"/>
<path d="M1383 1246 c-10 -13 -92 -243 -182 -512 -126 -374 -163 -495 -158
-516 8 -29 51 -58 85 -58 48 0 59 25 227 530 91 272 165 503 165 513 0 10 -11
29 -25 42 -33 34 -87 34 -112 1z"/>
<path d="M3625 1245 c-14 -13 -25 -32 -25 -42 0 -10 74 -241 165 -513 168
-505 179 -530 227 -530 34 0 77 29 85 58 5 21 -32 142 -158 516 -90 269 -172
499 -182 512 -25 33 -79 33 -112 -1z"/>
<path d="M2501 1084 c-21 -26 -21 -36 -21 -529 0 -478 1 -504 19 -526 27 -33
95 -33 122 0 18 22 19 48 19 528 l0 504 -25 24 c-34 35 -86 34 -114 -1z"/>
</g>
</svg>
